<svg xmlns="http://www.w3.org/2000/svg" viewBox="0 0 640 400" role="img" aria-labelledby="title desc">
  <title id="title">MAESIL placeholder figure</title>
  <desc id="desc">Abstract masked volume patches and reconstruction blocks.</desc>
  <rect width="640" height="400" fill="#f7f4ec" />
  <rect x="36" y="36" width="568" height="328" rx="28" fill="#fffdfa" stroke="#d9d3c6" />
  <g transform="translate(88 88)">
    <rect x="0" y="0" width="208" height="208" rx="26" fill="#edf3f2" />
    <g fill="#98b4b7">
      <rect x="26" y="26" width="42" height="42" rx="10" />
      <rect x="82" y="26" width="42" height="42" rx="10" />
      <rect x="138" y="26" width="42" height="42" rx="10" />
      <rect x="26" y="82" width="42" height="42" rx="10" />
      <rect x="138" y="82" width="42" height="42" rx="10" />
      <rect x="26" y="138" width="42" height="42" rx="10" />
      <rect x="82" y="138" width="42" height="42" rx="10" />
      <rect x="138" y="138" width="42" height="42" rx="10" />
    </g>
    <g fill="#fffdf9" stroke="#235963" stroke-width="6">
      <rect x="82" y="82" width="42" height="42" rx="10" />
      <path d="M90 90l26 26M116 90l-26 26" stroke-linecap="round" />
    </g>
  </g>
  <g transform="translate(360 100)">
    <rect x="0" y="0" width="190" height="180" rx="26" fill="#e5efee" />
    <g fill="#bfd5d4">
      <rect x="24" y="24" width="58" height="58" rx="12" />
      <rect x="100" y="24" width="58" height="58" rx="12" />
      <rect x="24" y="98" width="58" height="58" rx="12" />
      <rect x="100" y="98" width="58" height="58" rx="12" />
    </g>
    <path d="M-40 96H0" stroke="#235963" stroke-width="10" stroke-linecap="round" />
    <polygon points="-12,96 -30,84 -30,108" fill="#235963" />
  </g>
</svg>
