<svg xmlns="http://www.w3.org/2000/svg" viewBox="0 0 960 540" role="img" aria-labelledby="title desc">
  <title id="title">Deformed Cost-Volume Autoencoding project figure</title>
  <desc id="desc">A simplified schematic of deformation-aware optical flow pretraining with deformed target features, cost memory, and canonical reconstruction.</desc>
  <rect width="960" height="540" fill="#f6f4ed"/>
  <rect x="28" y="40" width="904" height="460" rx="28" fill="#ffffff" stroke="#dbe3e1"/>

  <g fill="none" stroke-linecap="round" stroke-linejoin="round">
    <rect x="62" y="96" width="150" height="86" rx="18" fill="#f8faf9" stroke="#c9d8d4"/>
    <rect x="62" y="228" width="150" height="86" rx="18" fill="#f8faf9" stroke="#c9d8d4"/>
    <rect x="62" y="360" width="150" height="86" rx="18" fill="#f8faf9" stroke="#c9d8d4"/>

    <rect x="236" y="92" width="28" height="94" rx="10" fill="#fff3cd" stroke="#f0c250"/>
    <rect x="236" y="224" width="28" height="94" rx="10" fill="#fff3cd" stroke="#f0c250"/>
    <rect x="236" y="356" width="28" height="94" rx="10" fill="#fff3cd" stroke="#f0c250"/>

    <rect x="320" y="190" width="194" height="162" rx="22" fill="#f6f8fb" stroke="#d7e0ee"/>
    <rect x="552" y="164" width="162" height="214" rx="22" fill="#f9f5ef" stroke="#e7d7bf"/>
    <rect x="754" y="120" width="142" height="104" rx="18" fill="#eef7ee" stroke="#b9d8b5"/>
    <rect x="754" y="310" width="142" height="104" rx="18" fill="#eef4fb" stroke="#bfd0ec"/>
  </g>

  <g font-family="Avenir Next, Helvetica Neue, Helvetica, Arial, sans-serif" fill="#24333a">
    <text x="72" y="148" font-size="18" font-weight="600">Source</text>
    <text x="72" y="280" font-size="18" font-weight="600">Source</text>
    <text x="72" y="412" font-size="18" font-weight="600">Target</text>

    <text x="250" y="118" font-size="14" transform="rotate(90 250 118)">Context</text>
    <text x="250" y="250" font-size="14" transform="rotate(90 250 250)">Siamese</text>
    <text x="250" y="382" font-size="14" transform="rotate(90 250 382)">Siamese</text>

    <text x="344" y="222" font-size="18" font-weight="600">Deformed target features</text>
    <text x="344" y="252" font-size="14" fill="#55666d">local warps + masked cost volume</text>
    <text x="344" y="350" font-size="14" fill="#55666d">sampled deformation regions</text>

    <text x="580" y="198" font-size="18" font-weight="600">Cost memory</text>
    <text x="580" y="228" font-size="14" fill="#55666d">cross attention</text>
    <text x="580" y="252" font-size="14" fill="#55666d">deformation-aware pretraining</text>

    <text x="778" y="164" font-size="18" font-weight="600">Canonical</text>
    <text x="778" y="190" font-size="18" font-weight="600">reconstruction</text>
    <text x="778" y="348" font-size="18" font-weight="600">Optical flow</text>
    <text x="778" y="374" font-size="14" fill="#55666d">fine-tuning output</text>

    <text x="82" y="74" font-size="24" font-weight="600">DCVA project</text>
    <text x="82" y="498" font-size="14" fill="#617178">Deformation-robust optical flow pretraining via deformed cost-volume autoencoding</text>
  </g>

  <g fill="#2d5963">
    <rect x="90" y="118" width="68" height="42" rx="10" opacity="0.18"/>
    <rect x="90" y="250" width="68" height="42" rx="10" opacity="0.18"/>
    <rect x="90" y="382" width="68" height="42" rx="10" opacity="0.18"/>

    <rect x="366" y="274" width="48" height="48" rx="10" fill="#8fb6ff" opacity="0.92"/>
    <rect x="424" y="274" width="48" height="48" rx="10" fill="#9bd3a8" opacity="0.92"/>
    <rect x="610" y="252" width="40" height="40" rx="10" fill="#f0b67f" opacity="0.92"/>
    <rect x="666" y="252" width="40" height="40" rx="10" fill="#7da9f7" opacity="0.92"/>

    <rect x="798" y="192" width="54" height="54" rx="12" fill="#7fb7ff" opacity="0.85"/>
    <rect x="798" y="382" width="54" height="54" rx="12" fill="#7fd6c2" opacity="0.85"/>
  </g>

  <g fill="none" stroke-width="4">
    <path d="M264 271H306" stroke="#5d8ee6"/>
    <path d="M514 271H552" stroke="#5d8ee6"/>
    <path d="M714 208H754" stroke="#7dbb5e"/>
    <path d="M714 334H754" stroke="#5d8ee6"/>
    <path d="M212 271L236 271" stroke="#5d8ee6"/>
    <path d="M212 403L320 334" stroke="#d15757"/>
    <path d="M212 271L320 230" stroke="#5d8ee6"/>
    <path d="M442 132C492 112 586 112 642 132" stroke="#7dbb5e" stroke-dasharray="10 10"/>
  </g>

  <g fill="#d15757">
    <circle cx="352" cy="334" r="8"/>
    <circle cx="392" cy="310" r="8"/>
    <circle cx="432" cy="342" r="8"/>
  </g>
</svg>
